<!DOCTYPE svg PUBLIC "-//W3C//DTD SVG 1.1//EN" "http://www.w3.org/Graphics/SVG/1.1/DTD/svg11.dtd">
<!-- Uploaded to: SVG Repo, www.svgrepo.com, Transformed by: SVG Repo Mixer Tools -->
<svg fill="#031927" height="256px" width="256px" version="1.1" id="Capa_1" xmlns="http://www.w3.org/2000/svg" xmlns:xlink="http://www.w3.org/1999/xlink" viewBox="0 0 538.493 538.493" xml:space="preserve" stroke="#031927">
<g id="SVGRepo_bgCarrier" stroke-width="0"/>
<g id="SVGRepo_tracerCarrier" stroke-linecap="round" stroke-linejoin="round"/>
<g id="SVGRepo_iconCarrier"> <g> <path d="M191.262,226.576c50.319,0,91.257-40.948,91.257-91.28c0-50.332-40.937-91.28-91.257-91.28 c-50.331,0-91.278,40.948-91.278,91.28C99.984,185.628,140.931,226.576,191.262,226.576z"/> <path d="M296.407,258.993c-6.618-12.691-19.629-20.575-33.954-20.575c-0.163,0-104.433,0-139.244,0 c-0.781,0-1.524,0.186-2.267,0.186c-14.542,0-24.314,8.766-30.373,20.389L4.334,424.301c-9.759,18.71-2.481,41.869,16.224,51.625 c4.675,2.438,9.69,3.868,14.906,4.249c0.916,0.066,1.848,0.101,2.768,0.101c14.324,0,27.334-7.885,33.952-20.576l34.828-66.765 v82.735c0,10.37,7.925,18.807,17.666,18.807H262.95c9.742,0,17.668-8.436,17.668-18.807v-81.477l34.172,65.505 c6.618,12.692,19.628,20.576,33.952,20.577c0.92,0,1.851-0.034,2.768-0.101c5.219-0.381,10.233-1.811,14.905-4.249 c18.705-9.755,25.984-32.913,16.227-51.625L296.407,258.993z"/> <path d="M536.771,113.769l-14.162-14.162c-1.11-1.11-2.509-1.722-3.94-1.722c-2.071,0-3.876,1.225-4.827,3.275l-7.83,16.875 c-0.586,1.263-0.764,2.712-0.615,4.134l-24.914,24.311c-18.225-16.794-42.544-27.068-69.221-27.068 c-56.375,0-102.24,45.865-102.24,102.24c0,56.376,45.865,102.241,102.24,102.241c56.376,0,102.242-45.865,102.242-102.241 c0-25.268-9.219-48.42-24.464-66.282l25.004-24.397c0.356,0.045,0.713,0.075,1.073,0.075c1.148,0,2.264-0.235,3.225-0.682 l16.875-7.83c1.729-0.803,2.896-2.244,3.198-3.954C538.719,116.87,538.12,115.117,536.771,113.769z M497.934,221.652 c0,47.791-38.881,86.671-86.672,86.671c-47.79,0-86.67-38.88-86.67-86.671c0-47.79,38.88-86.67,86.67-86.67 c22.315,0,42.686,8.479,58.065,22.382l-12.666,12.358c-12.146-10.631-28.027-17.096-45.399-17.096 c-38.062,0-69.027,30.965-69.027,69.025c0,38.062,30.966,69.027,69.027,69.027s69.027-30.966,69.027-69.027 c0-16.255-5.662-31.205-15.099-43.012l12.683-12.375C490.393,181.294,497.934,200.609,497.934,221.652z M464.719,221.652 c0,29.477-23.98,53.457-53.457,53.457c-29.477,0-53.457-23.98-53.457-53.457c0-29.475,23.98-53.455,53.457-53.455 c13.01,0,24.945,4.676,34.225,12.43l-11.971,11.68c-6.188-4.703-13.899-7.503-22.254-7.503c-20.317,0-36.848,16.53-36.848,36.849 c0,20.317,16.53,36.848,36.848,36.848c20.318,0,36.85-16.53,36.85-36.848c0-7.518-2.268-14.513-6.148-20.348l12.027-11.735 C460.723,198.511,464.719,209.622,464.719,221.652z M432.542,221.652c0,11.732-9.546,21.277-21.279,21.277 c-11.732,0-21.277-9.545-21.277-21.277c0-11.733,9.545-21.278,21.277-21.278c3.979,0,7.694,1.118,10.884,3.027l-7.003,6.833 l-2.625-2.597c-0.593-0.587-1.252-0.897-1.905-0.897c-1.029,0-1.845,0.749-2.182,2.003l-5.178,19.286 c-0.245,0.912-0.137,1.73,0.304,2.306c0.387,0.504,0.999,0.781,1.726,0.781c0.3,0,0.619-0.047,0.949-0.14l19.23-5.385 c1.028-0.287,1.71-0.888,1.917-1.689c0.208-0.802-0.096-1.657-0.855-2.408l-2.607-2.58l6.541-6.383 C431.78,215.299,432.542,218.384,432.542,221.652z"/> </g> </g>
</svg>